<svg xmlns="http://www.w3.org/2000/svg" width="512" height="512" viewBox="0 0 108 108">
  <rect width="108" height="108" rx="24" fill="#2C5EF5"/>
  <path fill="#fff" d="M20 63c0-3.6 2.2-6.6 5.5-7.9l5.6-11.2a8.5 8.5 0 0 1 7.6-4.7h30.6a8.5 8.5 0 0 1 7.7 4.7l5.6 11.2A8.5 8.5 0 0 1 88 63v9.2a4.3 4.3 0 0 1-4.3 4.3h-3.4a4.3 4.3 0 0 1-4.3-4.3v-1.1H32v1.1a4.3 4.3 0 0 1-4.3 4.3h-3.4a4.3 4.3 0 0 1-4.3-4.3z"/>
  <path fill="#DCE7FF" d="M35.7 45.6a3.5 3.5 0 0 1 3.1-1.9h30.4a3.5 3.5 0 0 1 3.1 1.9l4.1 8.2H31.6z"/>
  <path fill="#173A9B" d="M39.2 47h12.3v6.8H35.8zm17.3 0h12.3l3.4 6.8H56.5z"/>
  <circle cx="32.3" cy="62.2" r="4.3" fill="#173A9B"/>
  <circle cx="75.7" cy="62.2" r="4.3" fill="#173A9B"/>
  <circle cx="78" cy="30" r="12" fill="#34D399"/>
  <path d="m72.8 29.8 3.4 3.4 7-8" fill="none" stroke="#fff" stroke-linecap="round" stroke-linejoin="round" stroke-width="3.2"/>
</svg>
